<?xml version="1.0" standalone="no"?>
<!DOCTYPE svg PUBLIC "-//W3C//DTD SVG 20010904//EN"
 "http://www.w3.org/TR/2001/REC-SVG-20010904/DTD/svg10.dtd">
<svg version="1.0" xmlns="http://www.w3.org/2000/svg"
 width="433.000000pt" height="433.000000pt" viewBox="0 0 433.000000 433.000000"
 preserveAspectRatio="xMidYMid meet">
<metadata>
Created by potrace 1.14, written by Peter Selinger 2001-2017
</metadata>
<g transform="translate(0.000000,433.000000) scale(0.100000,-0.100000)"
fill="#000000" stroke="none">
<path d="M2120 4227 c-3 -3 -39 -7 -80 -11 -491 -40 -1009 -315 -1347 -715
-81 -95 -85 -100 -133 -170 -193 -286 -315 -615 -348 -946 -9 -90 -9 -348 0
-446 20 -212 88 -445 195 -669 208 -436 563 -783 1008 -987 181 -82 358 -133
595 -169 19 -3 121 -7 225 -9 187 -3 325 10 480 44 583 131 1081 510 1369
1040 31 57 56 106 56 108 0 2 9 22 19 46 31 70 55 136 100 282 13 42 41 183
56 284 12 79 13 441 2 501 -3 14 -8 45 -11 70 -4 25 -9 56 -11 70 -3 14 -7 34
-9 45 -37 191 -141 453 -256 640 -125 206 -254 353 -469 539 -103 88 -349 234
-506 299 -135 56 -340 114 -468 132 -27 3 -59 9 -70 11 -29 7 -391 16 -397 11z"/>
</g>
</svg>
